<?xml version="1.0" standalone="no"?>
<!DOCTYPE svg PUBLIC "-//W3C//DTD SVG 1.1//EN" "http://www.w3.org/Graphics/SVG/1.1/DTD/svg11.dtd">
<svg xmlns="http://www.w3.org/2000/svg" id="Layer_2" data-name="Layer 2" viewBox="0 0 182.17 67.5" width="182.1699981689453" height="67.5">
  <defs>
    <style>
      .cls-1 {
        fill: #fff;
      }

      .cls-2 {
        opacity: .59;
      }

      .cls-3 {
        fill: #774cfc;
      }

      .cls-4 {
        fill: none;
        stroke: #fff;
        stroke-miterlimit: 10;
        stroke-width: 2.38px;
      }
    </style>
  </defs>
  <g id="Layer_1-2" data-name="Layer 1">
    <g>
      <g>
        <line class="cls-4" x1="120.87" y1="24.83" x2="162.9" y2="24.83"/>
        <path class="cls-1" d="M162.74,27.96c1.73,0,3.13-1.4,3.13-3.13s-1.4-3.13-3.13-3.13-3.13,1.4-3.13,3.13,1.4,3.13,3.13,3.13Z"/>
      </g>
      <g>
        <line class="cls-4" x1="107.66" y1="35.05" x2="149.69" y2="35.05"/>
        <path class="cls-1" d="M149.53,38.18c1.73,0,3.13-1.4,3.13-3.13s-1.4-3.13-3.13-3.13-3.13,1.4-3.13,3.13,1.4,3.13,3.13,3.13Z"/>
      </g>
      <g>
        <line class="cls-4" x1="65.57" y1="40.83" x2="23.54" y2="40.83"/>
        <path class="cls-1" d="M23.69,37.71c-1.73,0-3.13,1.4-3.13,3.13s1.4,3.13,3.13,3.13,3.13-1.4,3.13-3.13-1.4-3.13-3.13-3.13Z"/>
      </g>
      <g>
        <line class="cls-4" x1="78.77" y1="30.61" x2="36.74" y2="30.61"/>
        <path class="cls-1" d="M36.9,27.48c-1.73,0-3.13,1.4-3.13,3.13s1.4,3.13,3.13,3.13,3.13-1.4,3.13-3.13-1.4-3.13-3.13-3.13Z"/>
      </g>
      <path class="cls-3" d="M113.26,11.22h56.52c1.16-1.96,3.28-3.29,5.72-3.29,3.68,0,6.67,2.99,6.67,6.67s-2.99,6.67-6.67,6.67c-2.44,0-4.56-1.33-5.72-3.29h-56.52v-6.75Z"/>
      <path class="cls-3" d="M68.91,49.53H12.39c-1.16-1.96-3.28-3.29-5.72-3.29-3.68,0-6.67,2.99-6.67,6.67s2.99,6.67,6.67,6.67c2.44,0,4.56-1.33,5.72-3.29h56.52v-6.75Z"/>
      <rect class="cls-1" x="59.71" width="67.49" height="67.49" rx="14.02" ry="14.02"/>
      <g>
        <path class="cls-3" d="M75.01,20.78c0,2.26,1.24,3.67,6.03,6.09l12.8,6.43c9.08,4.57,11.62,8.4,11.62,13.53,0,5.92-4.45,9.47-12.35,9.47h-33.41v-6.77h33.81c2.76,0,4.06-.9,4.06-2.65s-.9-3.33-7.39-6.6l-12.86-6.49c-7.11-3.61-10.21-7.61-10.21-13.03,0-6.09,4.34-9.59,12.41-9.59h47.64v6.77h-48.77c-1.86,0-3.38.96-3.38,2.82Z"/>
        <g>
          <path d="M121.78,64.55h.01s-17.79-53.36-17.79-53.36h-7.89l-9.42,25.94c-.51,1.47.11,1.86,1.41,1.02,2.42-1.47,5.41-2.54,7.67-2.82l4.29-11.84,5.07,14.04h-2.09c-11.84,0-17.88,3.78-21.88,14.89l-1.41,3.89h8.4l1.64-4.51c2.03-5.64,5.41-7.5,11.33-7.5h6.49l6.95,23.13c3.43-.34,5.8-1.78,7.22-2.87Z"/>
          <polygon class="cls-2" points="121.6 67.5 121.74 67.5 121.74 67.36 121.6 67.5"/>
        </g>
      </g>
    </g>
  </g>
</svg>