<?xml version="1.0" standalone="no"?>
<!DOCTYPE svg PUBLIC "-//W3C//DTD SVG 1.1//EN" "http://www.w3.org/Graphics/SVG/1.1/DTD/svg11.dtd">
<svg xmlns="http://www.w3.org/2000/svg" id="Layer_2" data-name="Layer 2" viewBox="0 0 390.43 116.94" width="390.42999267578125" height="116.94000244140625">
  <defs>
    <style>
      .cls-1 {
        fill: #231f20;
      }

      .cls-2 {
        fill: #774cfc;
      }
    </style>
  </defs>
  <g id="Layer_1-2" data-name="Layer 1">
    <g>
      <path class="cls-1" d="M72.99,31.33c0,1.44.79,2.34,3.85,3.89l8.17,4.1c5.8,2.92,7.42,5.36,7.42,8.64,0,3.78-2.84,6.05-7.88,6.05H5.33v-4.32h79.47c1.76,0,2.59-.58,2.59-1.69s-.58-2.12-4.71-4.21l-8.21-4.14c-4.54-2.3-6.52-4.86-6.52-8.31,0-3.89,2.77-6.12,7.92-6.12h15.12v4.32h-15.84c-1.19,0-2.16.61-2.16,1.8Z"/>
      <path class="cls-1" d="M108.99,35.22v18.79h-5.04v-18.79c0-2.38.54-4.25,1.55-5.69h-11.27v-4.32h24.48v4.32h-4.68c-3.38,0-5.04,1.66-5.04,5.69Z"/>
      <path class="cls-1" d="M140.42,33.35c0-2.45-1.62-3.82-4.54-3.82h-14.47v-4.32h14.47c6.37,0,9.94,2.92,9.94,8.13,0,4.64-2.74,7.45-7.81,8.06l8.53,12.6h-6.08l-8.42-12.49h-.54c-3.24,0-5.04,1.8-5.04,5.04v7.45h-5.04v-7.45c0-6.01,3.6-9.36,10.08-9.36h4.39c2.92,0,4.54-1.37,4.54-3.85Z"/>
      <path class="cls-1" d="M170.22,25.21v4.32h-21.53v-4.32h21.53ZM169.51,40.08h-10.73c-3.24,0-5.04,1.8-5.04,5.04v4.57h16.49v4.32h-21.53v-8.17c0-6.48,3.6-10.08,10.08-10.08h10.73v4.32Z"/>
      <path class="cls-1" d="M175.91,41.77l6.01-16.56h5.04l10.44,28.8h-5.36l-2.77-7.67h-4.14c-3.78,0-5.94,1.19-7.23,4.79l-1.04,2.88h-5.36l.9-2.48c2.56-7.09,6.41-9.5,13.97-9.5h1.33l-3.24-8.96-2.74,7.56c-1.44.18-3.35.86-4.9,1.8-.83.54-1.22.29-.9-.65Z"/>
      <path class="cls-1" d="M199.57,25.21h5.04c3.46,0,5.36,1.8,6.88,6.48l4.32,13.57,4.32-13.57c1.51-4.68,3.42-6.48,6.88-6.48h5.04v28.8h-5.04v-23.76c-1.12,0-1.44,1.01-2.84,5.44l-5.83,18.32h-5.04l-5.83-18.32c-1.4-4.43-1.73-5.44-2.84-5.44v23.76h-5.04v-28.8Z"/>
      <path class="cls-1" d="M240.68,49.69h15.77v4.32h-20.81v-28.8h5.04v24.48Z"/>
      <path class="cls-1" d="M264.19,3.16v50.85h-5.04V3.16h5.04Z"/>
      <path class="cls-1" d="M273.65,24.64c3.42,0,5.79,2.2,6.95,6.69l3.78,14.72c.58,2.27,1.51,2.92,3.56,2.92v-23.76h4.32v28.8h-4.32c-4.17,0-7.34-2.34-8.42-6.59l-3.96-15.51c-.61-2.38-1.3-2.95-2.09-2.95s-1.37.65-1.37,2.59v22.46h-4.32v-22.46c0-4.54,2.16-6.91,5.87-6.91Z"/>
      <path class="cls-1" d="M317.39,25.21v4.32h-21.53v-4.32h21.53ZM316.67,40.08h-10.73c-3.24,0-5.04,1.8-5.04,5.04v4.57h84.66v4.32h-89.7v-8.17c0-6.48,3.6-10.08,10.08-10.08h10.73v4.32Z"/>
      <path class="cls-1" d="M53.24,84.97l6.01-16.56h5.04l10.44,28.8h-5.36l-2.77-7.67h-4.14c-3.78,0-5.94,1.19-7.23,4.79l-1.04,2.88h-5.36l.9-2.48c2.56-7.09,6.41-9.5,13.97-9.5h1.33l-3.24-8.96-2.74,7.56c-1.44.18-3.35.86-4.9,1.8-.83.54-1.22.29-.9-.65Z"/>
      <path class="cls-1" d="M95.25,68.41h5.04v16.88c0,8.21-4.39,12.49-12.2,12.49s-12.27-4.28-12.27-12.49v-16.88h5.04v17.46c0,5.08,2.38,7.59,7.2,7.59s7.2-2.52,7.2-7.59v-17.46Z"/>
      <path class="cls-1" d="M117.76,78.42v38.52h-5.04v-38.52c0-2.38.54-4.25,1.55-5.69h-11.27v-4.32h24.48v4.32h-4.68c-3.38,0-5.04,1.66-5.04,5.69Z"/>
      <path class="cls-1" d="M128.38,82.81c0-8.78,5.94-14.97,14.4-14.97s14.4,6.19,14.4,14.97-5.94,14.97-14.4,14.97-14.4-6.19-14.4-14.97ZM151.77,82.81c0-6.26-3.71-10.65-9-10.65s-9,4.39-9,10.65,3.71,10.65,9,10.65,9-4.39,9-10.65Z"/>
      <path class="cls-1" d="M160.42,68.41h5.04c3.46,0,5.36,1.8,6.88,6.48l4.32,13.57,4.32-13.57c1.51-4.68,3.42-6.48,6.88-6.48h5.04v28.8h-5.04v-23.76c-1.12,0-1.44,1.01-2.84,5.44l-5.83,18.32h-5.04l-5.83-18.32c-1.4-4.43-1.73-5.44-2.84-5.44v23.76h-5.04v-28.8Z"/>
      <path class="cls-1" d="M199.48,84.97l6.01-16.56h5.04l10.44,28.8h-5.36l-2.77-7.67h-4.14c-3.78,0-5.94,1.19-7.23,4.79l-1.04,2.88h-5.36l.9-2.48c2.56-7.09,6.41-9.5,13.97-9.5h1.33l-3.24-8.96-2.74,7.56c-1.44.18-3.35.86-4.9,1.8-.83.54-1.22.29-.9-.65Z"/>
      <path class="cls-1" d="M230.87,78.42v18.79h-5.04v-18.79c0-2.38.54-4.25,1.55-5.69h-11.27v-4.32h24.48v4.32h-4.68c-3.38,0-5.04,1.66-5.04,5.69Z"/>
      <path class="cls-1" d="M248.33,68.41v28.8h-5.04v-28.8h5.04Z"/>
      <path class="cls-1" d="M251.57,82.81c0-8.78,5.94-14.97,14.4-14.97s14.4,6.19,14.4,14.97-5.94,14.97-14.4,14.97-14.4-6.19-14.4-14.97ZM274.97,82.81c0-6.26-3.71-10.65-9-10.65s-9,4.39-9,10.65,3.71,10.65,9,10.65,9-4.39,9-10.65Z"/>
      <path class="cls-1" d="M289.48,67.84c3.42,0,5.79,2.2,6.95,6.69l3.78,14.72c.58,2.27,1.51,2.92,3.56,2.92v-23.76h4.32v28.8h-4.32c-4.17,0-7.34-2.34-8.42-6.59l-3.96-15.51c-.61-2.38-1.3-2.95-2.09-2.95s-1.37.65-1.37,2.59v25.11h-4.32v-25.11c0-4.54,2.16-6.91,5.87-6.91Z"/>
      <path class="cls-1" d="M316.19,74.53c0,1.44.79,2.34,3.85,3.89l8.17,4.1c5.8,2.92,7.42,5.36,7.42,8.64,0,3.78-2.84,6.05-7.88,6.05h-16.95v-4.32h17.21c1.76,0,2.59-.58,2.59-1.69s-.58-2.12-4.71-4.21l-8.21-4.14c-4.54-2.3-6.52-4.86-6.52-8.31,0-3.89,2.77-6.12,7.92-6.12h67.61v4.32h-68.33c-1.19,0-2.16.61-2.16,1.8Z"/>
    </g>
    <circle class="cls-2" cx="386.16" cy="70.87" r="4.27"/>
    <circle class="cls-2" cx="386.16" cy="51.91" r="4.27"/>
    <circle class="cls-2" cx="4.27" cy="51.92" r="4.27"/>
    <circle class="cls-2" cx="261.55" cy="4.27" r="4.27"/>
  </g>
</svg>